<svg width="190" height="37" viewBox="0 0 190 37" fill="none" xmlns="http://www.w3.org/2000/svg">
<path d="M4.9834 13H3.71191V4.57129L1.16211 5.50781V4.35938L4.78516 2.99902H4.9834V13ZM10.5273 7.4082H11.4775C12.0745 7.39909 12.5439 7.24186 12.8857 6.93652C13.2275 6.63118 13.3984 6.21875 13.3984 5.69922C13.3984 4.53255 12.8174 3.94922 11.6553 3.94922C11.1084 3.94922 10.6709 4.10645 10.3428 4.4209C10.0192 4.73079 9.85742 5.14323 9.85742 5.6582H8.59277C8.59277 4.86979 8.87988 4.21582 9.4541 3.69629C10.0329 3.1722 10.7666 2.91016 11.6553 2.91016C12.5941 2.91016 13.3301 3.15853 13.8633 3.65527C14.3965 4.15202 14.6631 4.84245 14.6631 5.72656C14.6631 6.15951 14.5218 6.57878 14.2393 6.98438C13.9613 7.38997 13.5807 7.69303 13.0977 7.89355C13.6445 8.06673 14.0661 8.35384 14.3623 8.75488C14.6631 9.15592 14.8135 9.64583 14.8135 10.2246C14.8135 11.1178 14.5218 11.8265 13.9385 12.3506C13.3551 12.8747 12.5964 13.1367 11.6621 13.1367C10.7279 13.1367 9.9668 12.8838 9.37891 12.3779C8.79557 11.8721 8.50391 11.2044 8.50391 10.375H9.77539C9.77539 10.8991 9.94629 11.3184 10.2881 11.6328C10.6299 11.9473 11.0879 12.1045 11.6621 12.1045C12.2728 12.1045 12.7399 11.945 13.0635 11.626C13.387 11.307 13.5488 10.849 13.5488 10.252C13.5488 9.67318 13.3711 9.22884 13.0156 8.91895C12.6602 8.60905 12.1475 8.44954 11.4775 8.44043H10.5273V7.4082ZM23.0713 13H16.5498V12.0908L19.9951 8.2627C20.5055 7.68392 20.8564 7.21452 21.0479 6.85449C21.2438 6.48991 21.3418 6.11393 21.3418 5.72656C21.3418 5.20703 21.1846 4.78092 20.8701 4.44824C20.5557 4.11556 20.1364 3.94922 19.6123 3.94922C18.9834 3.94922 18.4935 4.12923 18.1426 4.48926C17.7962 4.84473 17.623 5.34147 17.623 5.97949H16.3584C16.3584 5.06348 16.6523 4.32292 17.2402 3.75781C17.8327 3.19271 18.6234 2.91016 19.6123 2.91016C20.5374 2.91016 21.2689 3.15397 21.8066 3.6416C22.3444 4.12467 22.6133 4.76953 22.6133 5.57617C22.6133 6.55599 21.9889 7.72266 20.7402 9.07617L18.0742 11.9678H23.0713V13ZM24.5 14.9824L23.7822 14.4902C24.2106 13.8932 24.4339 13.278 24.4521 12.6445V11.5029H25.6895V12.4941C25.6895 12.9544 25.5755 13.4147 25.3477 13.875C25.1243 14.3353 24.8418 14.7044 24.5 14.9824ZM36.4561 10.4023H32.2861L31.3496 13H29.9961L33.7969 3.04688H34.9453L38.7529 13H37.4062L36.4561 10.4023ZM32.6826 9.32227H36.0664L34.3711 4.66699L32.6826 9.32227ZM39.5869 9.24023C39.5869 8.10547 39.8558 7.19401 40.3936 6.50586C40.9313 5.81315 41.6354 5.4668 42.5059 5.4668C43.3717 5.4668 44.0576 5.76302 44.5635 6.35547V2.5H45.8281V13H44.666L44.6045 12.207C44.0986 12.8268 43.3945 13.1367 42.4922 13.1367C41.6354 13.1367 40.9359 12.7858 40.3936 12.084C39.8558 11.3822 39.5869 10.4661 39.5869 9.33594V9.24023ZM40.8516 9.38379C40.8516 10.2223 41.0247 10.8786 41.3711 11.3525C41.7174 11.8265 42.196 12.0635 42.8066 12.0635C43.6087 12.0635 44.1943 11.7035 44.5635 10.9834V7.58594C44.1852 6.88867 43.6042 6.54004 42.8203 6.54004C42.2005 6.54004 41.7174 6.7793 41.3711 7.25781C41.0247 7.73633 40.8516 8.44499 40.8516 9.38379ZM47.4893 9.24023C47.4893 8.10547 47.7581 7.19401 48.2959 6.50586C48.8337 5.81315 49.5378 5.4668 50.4082 5.4668C51.2741 5.4668 51.96 5.76302 52.4658 6.35547V2.5H53.7305V13H52.5684L52.5068 12.207C52.001 12.8268 51.2969 13.1367 50.3945 13.1367C49.5378 13.1367 48.8382 12.7858 48.2959 12.084C47.7581 11.3822 47.4893 10.4661 47.4893 9.33594V9.24023ZM48.7539 9.38379C48.7539 10.2223 48.9271 10.8786 49.2734 11.3525C49.6198 11.8265 50.0983 12.0635 50.709 12.0635C51.5111 12.0635 52.0967 11.7035 52.4658 10.9834V7.58594C52.0876 6.88867 51.5065 6.54004 50.7227 6.54004C50.1029 6.54004 49.6198 6.7793 49.2734 7.25781C48.9271 7.73633 48.7539 8.44499 48.7539 9.38379ZM59.2744 6.73828C59.083 6.70638 58.8757 6.69043 58.6523 6.69043C57.8229 6.69043 57.2601 7.04362 56.9639 7.75V13H55.6992V5.60352H56.9297L56.9502 6.45801C57.3649 5.7972 57.9528 5.4668 58.7139 5.4668C58.96 5.4668 59.1468 5.4987 59.2744 5.5625V6.73828ZM63.376 13.1367C62.3734 13.1367 61.5576 12.8086 60.9287 12.1523C60.2998 11.4915 59.9854 10.6097 59.9854 9.50684V9.27441C59.9854 8.54069 60.1243 7.88672 60.4023 7.3125C60.6849 6.73372 61.0768 6.28255 61.5781 5.95898C62.084 5.63086 62.6309 5.4668 63.2188 5.4668C64.1803 5.4668 64.9277 5.78353 65.4609 6.41699C65.9941 7.05046 66.2607 7.95736 66.2607 9.1377V9.66406H61.25C61.2682 10.3932 61.4801 10.9834 61.8857 11.4346C62.2959 11.8812 62.8154 12.1045 63.4443 12.1045C63.891 12.1045 64.2692 12.0133 64.5791 11.8311C64.889 11.6488 65.1602 11.4072 65.3926 11.1064L66.165 11.708C65.5452 12.6605 64.6156 13.1367 63.376 13.1367ZM63.2188 6.50586C62.7083 6.50586 62.2799 6.69271 61.9336 7.06641C61.5872 7.43555 61.373 7.95508 61.291 8.625H64.9961V8.5293C64.9596 7.88672 64.7865 7.38997 64.4766 7.03906C64.1667 6.68359 63.7474 6.50586 63.2188 6.50586ZM72.0371 11.0381C72.0371 10.6963 71.9072 10.432 71.6475 10.2451C71.3923 10.0537 70.9434 9.88965 70.3008 9.75293C69.6628 9.61621 69.1546 9.45215 68.7764 9.26074C68.4027 9.06934 68.1247 8.84147 67.9424 8.57715C67.7646 8.31283 67.6758 7.99837 67.6758 7.63379C67.6758 7.02767 67.931 6.51497 68.4414 6.0957C68.9564 5.67643 69.6126 5.4668 70.4102 5.4668C71.2487 5.4668 71.9277 5.68327 72.4473 6.11621C72.9714 6.54915 73.2334 7.10286 73.2334 7.77734H71.9619C71.9619 7.43099 71.8138 7.13249 71.5176 6.88184C71.2259 6.63118 70.8568 6.50586 70.4102 6.50586C69.9499 6.50586 69.5898 6.60612 69.3301 6.80664C69.0703 7.00716 68.9404 7.26921 68.9404 7.59277C68.9404 7.89811 69.0612 8.12826 69.3027 8.2832C69.5443 8.43815 69.9795 8.58626 70.6084 8.72754C71.2419 8.86882 71.7546 9.03743 72.1465 9.2334C72.5384 9.42936 72.8278 9.66634 73.0146 9.94434C73.2061 10.2178 73.3018 10.5527 73.3018 10.9492C73.3018 11.61 73.0374 12.141 72.5088 12.542C71.9801 12.9385 71.2943 13.1367 70.4512 13.1367C69.8587 13.1367 69.3346 13.0319 68.8789 12.8223C68.4232 12.6126 68.0654 12.321 67.8057 11.9473C67.5505 11.569 67.4229 11.1611 67.4229 10.7236H68.6875C68.7103 11.1475 68.8789 11.4847 69.1934 11.7354C69.5124 11.9814 69.9316 12.1045 70.4512 12.1045C70.9297 12.1045 71.3125 12.0088 71.5996 11.8174C71.8913 11.6214 72.0371 11.3617 72.0371 11.0381ZM79.2559 11.0381C79.2559 10.6963 79.126 10.432 78.8662 10.2451C78.611 10.0537 78.1621 9.88965 77.5195 9.75293C76.8815 9.61621 76.3734 9.45215 75.9951 9.26074C75.6214 9.06934 75.3434 8.84147 75.1611 8.57715C74.9834 8.31283 74.8945 7.99837 74.8945 7.63379C74.8945 7.02767 75.1497 6.51497 75.6602 6.0957C76.1751 5.67643 76.8314 5.4668 77.6289 5.4668C78.4674 5.4668 79.1465 5.68327 79.666 6.11621C80.1901 6.54915 80.4521 7.10286 80.4521 7.77734H79.1807C79.1807 7.43099 79.0326 7.13249 78.7363 6.88184C78.4447 6.63118 78.0755 6.50586 77.6289 6.50586C77.1686 6.50586 76.8086 6.60612 76.5488 6.80664C76.2891 7.00716 76.1592 7.26921 76.1592 7.59277C76.1592 7.89811 76.2799 8.12826 76.5215 8.2832C76.763 8.43815 77.1982 8.58626 77.8271 8.72754C78.4606 8.86882 78.9733 9.03743 79.3652 9.2334C79.7572 9.42936 80.0465 9.66634 80.2334 9.94434C80.4248 10.2178 80.5205 10.5527 80.5205 10.9492C80.5205 11.61 80.2562 12.141 79.7275 12.542C79.1989 12.9385 78.513 13.1367 77.6699 13.1367C77.0775 13.1367 76.5534 13.0319 76.0977 12.8223C75.6419 12.6126 75.2842 12.321 75.0244 11.9473C74.7692 11.569 74.6416 11.1611 74.6416 10.7236H75.9062C75.929 11.1475 76.0977 11.4847 76.4121 11.7354C76.7311 11.9814 77.1504 12.1045 77.6699 12.1045C78.1484 12.1045 78.5312 12.0088 78.8184 11.8174C79.11 11.6214 79.2559 11.3617 79.2559 11.0381ZM85.8389 13V3.04688H88.6484C89.5143 3.04688 90.2799 3.23828 90.9453 3.62109C91.6107 4.00391 92.1234 4.5485 92.4834 5.25488C92.848 5.96126 93.0326 6.77246 93.0371 7.68848V8.32422C93.0371 9.26302 92.8548 10.0856 92.4902 10.792C92.1302 11.4984 91.613 12.0407 90.9385 12.4189C90.2686 12.7972 89.487 12.9909 88.5938 13H85.8389ZM87.1514 4.12695V11.9268H88.5322C89.5439 11.9268 90.3301 11.6123 90.8906 10.9834C91.4557 10.3545 91.7383 9.45898 91.7383 8.29688V7.71582C91.7383 6.58561 91.4717 5.70833 90.9385 5.08398C90.4098 4.45508 89.6579 4.13607 88.6826 4.12695H87.1514ZM96.2021 13H94.9375V5.60352H96.2021V13ZM94.835 3.6416C94.835 3.43652 94.8965 3.26335 95.0195 3.12207C95.1471 2.98079 95.334 2.91016 95.5801 2.91016C95.8262 2.91016 96.013 2.98079 96.1406 3.12207C96.2682 3.26335 96.332 3.43652 96.332 3.6416C96.332 3.84668 96.2682 4.01758 96.1406 4.1543C96.013 4.29102 95.8262 4.35938 95.5801 4.35938C95.334 4.35938 95.1471 4.29102 95.0195 4.1543C94.8965 4.01758 94.835 3.84668 94.835 3.6416ZM102.539 11.0381C102.539 10.6963 102.409 10.432 102.149 10.2451C101.894 10.0537 101.445 9.88965 100.803 9.75293C100.165 9.61621 99.6566 9.45215 99.2783 9.26074C98.9046 9.06934 98.6266 8.84147 98.4443 8.57715C98.2666 8.31283 98.1777 7.99837 98.1777 7.63379C98.1777 7.02767 98.4329 6.51497 98.9434 6.0957C99.4583 5.67643 100.115 5.4668 100.912 5.4668C101.751 5.4668 102.43 5.68327 102.949 6.11621C103.473 6.54915 103.735 7.10286 103.735 7.77734H102.464C102.464 7.43099 102.316 7.13249 102.02 6.88184C101.728 6.63118 101.359 6.50586 100.912 6.50586C100.452 6.50586 100.092 6.60612 99.832 6.80664C99.5723 7.00716 99.4424 7.26921 99.4424 7.59277C99.4424 7.89811 99.5632 8.12826 99.8047 8.2832C100.046 8.43815 100.481 8.58626 101.11 8.72754C101.744 8.86882 102.257 9.03743 102.648 9.2334C103.04 9.42936 103.33 9.66634 103.517 9.94434C103.708 10.2178 103.804 10.5527 103.804 10.9492C103.804 11.61 103.539 12.141 103.011 12.542C102.482 12.9385 101.796 13.1367 100.953 13.1367C100.361 13.1367 99.8366 13.0319 99.3809 12.8223C98.9251 12.6126 98.5674 12.321 98.3076 11.9473C98.0524 11.569 97.9248 11.1611 97.9248 10.7236H99.1895C99.2122 11.1475 99.3809 11.4847 99.6953 11.7354C100.014 11.9814 100.434 12.1045 100.953 12.1045C101.432 12.1045 101.814 12.0088 102.102 11.8174C102.393 11.6214 102.539 11.3617 102.539 11.0381ZM107.167 3.8125V5.60352H108.548V6.58105H107.167V11.168C107.167 11.4642 107.229 11.6875 107.352 11.8379C107.475 11.9837 107.684 12.0566 107.98 12.0566C108.126 12.0566 108.327 12.0293 108.582 11.9746V13C108.249 13.0911 107.926 13.1367 107.611 13.1367C107.046 13.1367 106.62 12.9658 106.333 12.624C106.046 12.2822 105.902 11.7969 105.902 11.168V6.58105H104.556V5.60352H105.902V3.8125H107.167ZM113.606 6.73828C113.415 6.70638 113.208 6.69043 112.984 6.69043C112.155 6.69043 111.592 7.04362 111.296 7.75V13H110.031V5.60352H111.262L111.282 6.45801C111.697 5.7972 112.285 5.4668 113.046 5.4668C113.292 5.4668 113.479 5.4987 113.606 5.5625V6.73828ZM116.149 13H114.885V5.60352H116.149V13ZM114.782 3.6416C114.782 3.43652 114.844 3.26335 114.967 3.12207C115.094 2.98079 115.281 2.91016 115.527 2.91016C115.773 2.91016 115.96 2.98079 116.088 3.12207C116.215 3.26335 116.279 3.43652 116.279 3.6416C116.279 3.84668 116.215 4.01758 116.088 4.1543C115.96 4.29102 115.773 4.35938 115.527 4.35938C115.281 4.35938 115.094 4.29102 114.967 4.1543C114.844 4.01758 114.782 3.84668 114.782 3.6416ZM121.146 12.1045C121.598 12.1045 121.992 11.9678 122.329 11.6943C122.666 11.4209 122.853 11.0791 122.89 10.6689H124.086C124.063 11.0928 123.917 11.4961 123.648 11.8789C123.38 12.2617 123.02 12.5671 122.568 12.7949C122.122 13.0228 121.648 13.1367 121.146 13.1367C120.139 13.1367 119.337 12.8018 118.74 12.1318C118.148 11.4574 117.852 10.5368 117.852 9.37012V9.1582C117.852 8.43815 117.984 7.79785 118.248 7.2373C118.512 6.67676 118.891 6.24154 119.383 5.93164C119.88 5.62174 120.465 5.4668 121.14 5.4668C121.969 5.4668 122.657 5.71517 123.204 6.21191C123.756 6.70866 124.049 7.35352 124.086 8.14648H122.89C122.853 7.66797 122.671 7.27604 122.343 6.9707C122.019 6.66081 121.618 6.50586 121.14 6.50586C120.497 6.50586 119.998 6.73828 119.643 7.20312C119.292 7.66341 119.116 8.33105 119.116 9.20605V9.44531C119.116 10.2975 119.292 10.9538 119.643 11.4141C119.993 11.8743 120.495 12.1045 121.146 12.1045ZM127.224 3.8125V5.60352H128.604V6.58105H127.224V11.168C127.224 11.4642 127.285 11.6875 127.408 11.8379C127.531 11.9837 127.741 12.0566 128.037 12.0566C128.183 12.0566 128.383 12.0293 128.639 11.9746V13C128.306 13.0911 127.982 13.1367 127.668 13.1367C127.103 13.1367 126.677 12.9658 126.39 12.624C126.103 12.2822 125.959 11.7969 125.959 11.168V6.58105H124.612V5.60352H125.959V3.8125H127.224ZM130.047 14.9824L129.329 14.4902C129.757 13.8932 129.981 13.278 129.999 12.6445V11.5029H131.236V12.4941C131.236 12.9544 131.122 13.4147 130.895 13.875C130.671 14.3353 130.389 14.7044 130.047 14.9824ZM139.439 8.56348C138.314 8.23991 137.493 7.84342 136.979 7.37402C136.468 6.90007 136.213 6.31673 136.213 5.62402C136.213 4.84017 136.525 4.19303 137.149 3.68262C137.778 3.16764 138.594 2.91016 139.597 2.91016C140.28 2.91016 140.889 3.04232 141.422 3.30664C141.96 3.57096 142.374 3.93555 142.666 4.40039C142.962 4.86523 143.11 5.37337 143.11 5.9248H141.791C141.791 5.32324 141.6 4.85156 141.217 4.50977C140.834 4.16341 140.294 3.99023 139.597 3.99023C138.95 3.99023 138.444 4.13379 138.079 4.4209C137.719 4.70345 137.539 5.09766 137.539 5.60352C137.539 6.00911 137.71 6.35319 138.052 6.63574C138.398 6.91374 138.984 7.16895 139.809 7.40137C140.638 7.63379 141.285 7.89128 141.75 8.17383C142.219 8.45182 142.566 8.77767 142.789 9.15137C143.017 9.52507 143.131 9.96484 143.131 10.4707C143.131 11.2773 142.816 11.9245 142.188 12.4121C141.559 12.8952 140.718 13.1367 139.665 13.1367C138.981 13.1367 138.343 13.0068 137.751 12.7471C137.159 12.4827 136.701 12.1227 136.377 11.667C136.058 11.2113 135.898 10.694 135.898 10.1152H137.218C137.218 10.7168 137.439 11.193 137.881 11.5439C138.327 11.8903 138.922 12.0635 139.665 12.0635C140.358 12.0635 140.889 11.9222 141.258 11.6396C141.627 11.3571 141.812 10.972 141.812 10.4844C141.812 9.99674 141.641 9.62077 141.299 9.35645C140.957 9.08757 140.337 8.82324 139.439 8.56348ZM146.337 3.8125V5.60352H147.718V6.58105H146.337V11.168C146.337 11.4642 146.398 11.6875 146.521 11.8379C146.645 11.9837 146.854 12.0566 147.15 12.0566C147.296 12.0566 147.497 12.0293 147.752 11.9746V13C147.419 13.0911 147.096 13.1367 146.781 13.1367C146.216 13.1367 145.79 12.9658 145.503 12.624C145.216 12.2822 145.072 11.7969 145.072 11.168V6.58105H143.726V5.60352H145.072V3.8125H146.337ZM152.776 6.73828C152.585 6.70638 152.378 6.69043 152.154 6.69043C151.325 6.69043 150.762 7.04362 150.466 7.75V13H149.201V5.60352H150.432L150.452 6.45801C150.867 5.7972 151.455 5.4668 152.216 5.4668C152.462 5.4668 152.649 5.4987 152.776 5.5625V6.73828ZM156.878 13.1367C155.875 13.1367 155.06 12.8086 154.431 12.1523C153.802 11.4915 153.487 10.6097 153.487 9.50684V9.27441C153.487 8.54069 153.626 7.88672 153.904 7.3125C154.187 6.73372 154.579 6.28255 155.08 5.95898C155.586 5.63086 156.133 5.4668 156.721 5.4668C157.682 5.4668 158.43 5.78353 158.963 6.41699C159.496 7.05046 159.763 7.95736 159.763 9.1377V9.66406H154.752C154.77 10.3932 154.982 10.9834 155.388 11.4346C155.798 11.8812 156.317 12.1045 156.946 12.1045C157.393 12.1045 157.771 12.0133 158.081 11.8311C158.391 11.6488 158.662 11.4072 158.895 11.1064L159.667 11.708C159.047 12.6605 158.118 13.1367 156.878 13.1367ZM156.721 6.50586C156.21 6.50586 155.782 6.69271 155.436 7.06641C155.089 7.43555 154.875 7.95508 154.793 8.625H158.498V8.5293C158.462 7.88672 158.288 7.38997 157.979 7.03906C157.669 6.68359 157.249 6.50586 156.721 6.50586ZM164.302 13.1367C163.299 13.1367 162.483 12.8086 161.854 12.1523C161.226 11.4915 160.911 10.6097 160.911 9.50684V9.27441C160.911 8.54069 161.05 7.88672 161.328 7.3125C161.611 6.73372 162.003 6.28255 162.504 5.95898C163.01 5.63086 163.557 5.4668 164.145 5.4668C165.106 5.4668 165.854 5.78353 166.387 6.41699C166.92 7.05046 167.187 7.95736 167.187 9.1377V9.66406H162.176C162.194 10.3932 162.406 10.9834 162.812 11.4346C163.222 11.8812 163.741 12.1045 164.37 12.1045C164.817 12.1045 165.195 12.0133 165.505 11.8311C165.815 11.6488 166.086 11.4072 166.318 11.1064L167.091 11.708C166.471 12.6605 165.541 13.1367 164.302 13.1367ZM164.145 6.50586C163.634 6.50586 163.206 6.69271 162.859 7.06641C162.513 7.43555 162.299 7.95508 162.217 8.625H165.922V8.5293C165.885 7.88672 165.712 7.38997 165.402 7.03906C165.092 6.68359 164.673 6.50586 164.145 6.50586ZM170.372 3.8125V5.60352H171.753V6.58105H170.372V11.168C170.372 11.4642 170.434 11.6875 170.557 11.8379C170.68 11.9837 170.889 12.0566 171.186 12.0566C171.331 12.0566 171.532 12.0293 171.787 11.9746V13C171.454 13.0911 171.131 13.1367 170.816 13.1367C170.251 13.1367 169.825 12.9658 169.538 12.624C169.251 12.2822 169.107 11.7969 169.107 11.168V6.58105H167.761V5.60352H169.107V3.8125H170.372Z" fill="#FEFEFE"/>
<path d="M8.81152 29.3447C8.81152 30.32 8.64746 31.1722 8.31934 31.9014C7.99121 32.626 7.52637 33.1797 6.9248 33.5625C6.32324 33.9453 5.62142 34.1367 4.81934 34.1367C4.03548 34.1367 3.34049 33.9453 2.73438 33.5625C2.12826 33.1751 1.65658 32.626 1.31934 31.915C0.986654 31.1995 0.815755 30.3724 0.806641 29.4336V28.7158C0.806641 27.7588 0.972982 26.9134 1.30566 26.1797C1.63835 25.446 2.10775 24.8854 2.71387 24.498C3.32454 24.1061 4.02181 23.9102 4.80566 23.9102C5.60319 23.9102 6.30501 24.1038 6.91113 24.4912C7.52181 24.874 7.99121 25.4323 8.31934 26.166C8.64746 26.8952 8.81152 27.7451 8.81152 28.7158V29.3447ZM7.50586 28.7021C7.50586 27.5218 7.26888 26.6172 6.79492 25.9883C6.32096 25.3548 5.65788 25.0381 4.80566 25.0381C3.97624 25.0381 3.32227 25.3548 2.84375 25.9883C2.36979 26.6172 2.12598 27.4922 2.1123 28.6133V29.3447C2.1123 30.4886 2.35156 31.3887 2.83008 32.0449C3.31315 32.6966 3.97624 33.0225 4.81934 33.0225C5.66699 33.0225 6.32324 32.7148 6.78809 32.0996C7.25293 31.4798 7.49219 30.5934 7.50586 29.4404V28.7021ZM16.8301 30.3838C16.8301 31.5094 16.5726 32.4163 16.0576 33.1045C15.5426 33.7926 14.8454 34.1367 13.9658 34.1367C13.068 34.1367 12.3617 33.8519 11.8467 33.2822V36.8438H10.582V26.6035H11.7373L11.7988 27.4238C12.3138 26.7858 13.0293 26.4668 13.9453 26.4668C14.834 26.4668 15.5358 26.8018 16.0508 27.4717C16.5703 28.1416 16.8301 29.0736 16.8301 30.2676V30.3838ZM15.5654 30.2402C15.5654 29.4062 15.3877 28.7477 15.0322 28.2646C14.6768 27.7816 14.1891 27.54 13.5693 27.54C12.8037 27.54 12.2295 27.8796 11.8467 28.5586V32.0928C12.2249 32.7673 12.8037 33.1045 13.583 33.1045C14.1891 33.1045 14.6699 32.8652 15.0254 32.3867C15.3854 31.9036 15.5654 31.1882 15.5654 30.2402ZM21.5127 34.1367C20.5101 34.1367 19.6943 33.8086 19.0654 33.1523C18.4365 32.4915 18.1221 31.6097 18.1221 30.5068V30.2744C18.1221 29.5407 18.2611 28.8867 18.5391 28.3125C18.8216 27.7337 19.2135 27.2826 19.7148 26.959C20.2207 26.6309 20.7676 26.4668 21.3555 26.4668C22.3171 26.4668 23.0645 26.7835 23.5977 27.417C24.1309 28.0505 24.3975 28.9574 24.3975 30.1377V30.6641H19.3867C19.4049 31.3932 19.6169 31.9834 20.0225 32.4346C20.4326 32.8812 20.9521 33.1045 21.5811 33.1045C22.0277 33.1045 22.4059 33.0133 22.7158 32.8311C23.0257 32.6488 23.2969 32.4072 23.5293 32.1064L24.3018 32.708C23.682 33.6605 22.7523 34.1367 21.5127 34.1367ZM21.3555 27.5059C20.8451 27.5059 20.4167 27.6927 20.0703 28.0664C19.724 28.4355 19.5098 28.9551 19.4277 29.625H23.1328V29.5293C23.0964 28.8867 22.9232 28.39 22.6133 28.0391C22.3034 27.6836 21.8841 27.5059 21.3555 27.5059ZM27.0635 26.6035L27.1045 27.5332C27.6696 26.8223 28.4079 26.4668 29.3193 26.4668C30.8825 26.4668 31.6709 27.3486 31.6846 29.1123V34H30.4199V29.1055C30.4154 28.5723 30.2923 28.1781 30.0508 27.9229C29.8138 27.6676 29.4424 27.54 28.9365 27.54C28.5264 27.54 28.1663 27.6494 27.8564 27.8682C27.5465 28.0869 27.305 28.374 27.1318 28.7295V34H25.8672V26.6035H27.0635ZM37.2627 34V24.0469H40.0723C40.9382 24.0469 41.7038 24.2383 42.3691 24.6211C43.0345 25.0039 43.5472 25.5485 43.9072 26.2549C44.2718 26.9613 44.4564 27.7725 44.4609 28.6885V29.3242C44.4609 30.263 44.2786 31.0856 43.9141 31.792C43.554 32.4984 43.0368 33.0407 42.3623 33.4189C41.6924 33.7972 40.9108 33.9909 40.0176 34H37.2627ZM38.5752 25.127V32.9268H39.9561C40.9678 32.9268 41.7539 32.6123 42.3145 31.9834C42.8796 31.3545 43.1621 30.459 43.1621 29.2969V28.7158C43.1621 27.5856 42.8955 26.7083 42.3623 26.084C41.8337 25.4551 41.0817 25.1361 40.1064 25.127H38.5752ZM50.8184 34C50.7454 33.8542 50.6862 33.5944 50.6406 33.2207C50.0527 33.8314 49.3509 34.1367 48.5352 34.1367C47.806 34.1367 47.2067 33.9316 46.7373 33.5215C46.2725 33.1068 46.04 32.5827 46.04 31.9492C46.04 31.179 46.3317 30.582 46.915 30.1582C47.5029 29.7298 48.3278 29.5156 49.3896 29.5156H50.6201V28.9346C50.6201 28.4925 50.488 28.1416 50.2236 27.8818C49.9593 27.6175 49.5697 27.4854 49.0547 27.4854C48.6035 27.4854 48.2253 27.5993 47.9199 27.8271C47.6146 28.055 47.4619 28.3307 47.4619 28.6543H46.1904C46.1904 28.2852 46.3203 27.9297 46.5801 27.5879C46.8444 27.2415 47.1999 26.9681 47.6465 26.7676C48.0977 26.5671 48.5921 26.4668 49.1299 26.4668C49.9821 26.4668 50.6497 26.681 51.1328 27.1094C51.6159 27.5332 51.8665 28.1188 51.8848 28.8662V32.2705C51.8848 32.9495 51.9714 33.4896 52.1445 33.8906V34H50.8184ZM48.7197 33.0361C49.1162 33.0361 49.4922 32.9336 49.8477 32.7285C50.2031 32.5234 50.4606 32.2568 50.6201 31.9287V30.4111H49.6289C48.0794 30.4111 47.3047 30.8646 47.3047 31.7715C47.3047 32.168 47.4368 32.4779 47.7012 32.7012C47.9655 32.9245 48.305 33.0361 48.7197 33.0361ZM55.2412 34H53.9766V26.6035H55.2412V34ZM53.874 24.6416C53.874 24.4365 53.9355 24.2633 54.0586 24.1221C54.1862 23.9808 54.373 23.9102 54.6191 23.9102C54.8652 23.9102 55.0521 23.9808 55.1797 24.1221C55.3073 24.2633 55.3711 24.4365 55.3711 24.6416C55.3711 24.8467 55.3073 25.0176 55.1797 25.1543C55.0521 25.291 54.8652 25.3594 54.6191 25.3594C54.373 25.3594 54.1862 25.291 54.0586 25.1543C53.9355 25.0176 53.874 24.8467 53.874 24.6416ZM58.6455 34H57.3809V23.5H58.6455V34ZM63.0957 32.1475L64.8184 26.6035H66.1719L63.1982 35.1416C62.738 36.3721 62.0065 36.9873 61.0039 36.9873L60.7646 36.9668L60.293 36.8779V35.8525L60.6348 35.8799C61.0632 35.8799 61.3958 35.7933 61.6328 35.6201C61.8743 35.4469 62.0726 35.1302 62.2275 34.6699L62.5078 33.918L59.8691 26.6035H61.25L63.0957 32.1475ZM74.8057 34H73.5342V25.5713L70.9844 26.5078V25.3594L74.6074 23.999H74.8057V34ZM84.752 29.7549C84.752 31.236 84.499 32.3366 83.9932 33.0566C83.4873 33.7767 82.6966 34.1367 81.6211 34.1367C80.5592 34.1367 79.7731 33.7858 79.2627 33.084C78.7523 32.3776 78.488 31.3249 78.4697 29.9258V28.2373C78.4697 26.7744 78.7227 25.6875 79.2285 24.9766C79.7344 24.2656 80.5273 23.9102 81.6074 23.9102C82.6784 23.9102 83.4668 24.2542 83.9727 24.9424C84.4785 25.626 84.7383 26.6833 84.752 28.1143V29.7549ZM83.4873 28.0254C83.4873 26.9544 83.3369 26.1751 83.0361 25.6875C82.7354 25.1953 82.2591 24.9492 81.6074 24.9492C80.9603 24.9492 80.4886 25.193 80.1924 25.6807C79.8962 26.1683 79.7435 26.918 79.7344 27.9297V29.9531C79.7344 31.0286 79.8893 31.8239 80.1992 32.3389C80.5137 32.8493 80.9876 33.1045 81.6211 33.1045C82.2454 33.1045 82.708 32.863 83.0088 32.3799C83.3141 31.8968 83.4736 31.1357 83.4873 30.0967V28.0254ZM86.4609 33.3369C86.4609 33.1182 86.5247 32.9359 86.6523 32.79C86.7845 32.6442 86.9805 32.5713 87.2402 32.5713C87.5 32.5713 87.696 32.6442 87.8281 32.79C87.9648 32.9359 88.0332 33.1182 88.0332 33.3369C88.0332 33.5465 87.9648 33.722 87.8281 33.8633C87.696 34.0046 87.5 34.0752 87.2402 34.0752C86.9805 34.0752 86.7845 34.0046 86.6523 33.8633C86.5247 33.722 86.4609 33.5465 86.4609 33.3369ZM86.4678 27.3008C86.4678 27.082 86.5316 26.8997 86.6592 26.7539C86.7913 26.6081 86.9873 26.5352 87.2471 26.5352C87.5068 26.5352 87.7028 26.6081 87.835 26.7539C87.9717 26.8997 88.04 27.082 88.04 27.3008C88.04 27.5104 87.9717 27.6859 87.835 27.8271C87.7028 27.9684 87.5068 28.0391 87.2471 28.0391C86.9873 28.0391 86.7913 27.9684 86.6592 27.8271C86.5316 27.6859 86.4678 27.5104 86.4678 27.3008ZM96.0039 29.7549C96.0039 31.236 95.751 32.3366 95.2451 33.0566C94.7393 33.7767 93.9486 34.1367 92.873 34.1367C91.8112 34.1367 91.0251 33.7858 90.5146 33.084C90.0042 32.3776 89.7399 31.3249 89.7217 29.9258V28.2373C89.7217 26.7744 89.9746 25.6875 90.4805 24.9766C90.9863 24.2656 91.7793 23.9102 92.8594 23.9102C93.9303 23.9102 94.7188 24.2542 95.2246 24.9424C95.7305 25.626 95.9902 26.6833 96.0039 28.1143V29.7549ZM94.7393 28.0254C94.7393 26.9544 94.5889 26.1751 94.2881 25.6875C93.9873 25.1953 93.5111 24.9492 92.8594 24.9492C92.2122 24.9492 91.7406 25.193 91.4443 25.6807C91.1481 26.1683 90.9954 26.918 90.9863 27.9297V29.9531C90.9863 31.0286 91.1413 31.8239 91.4512 32.3389C91.7656 32.8493 92.2396 33.1045 92.873 33.1045C93.4974 33.1045 93.96 32.863 94.2607 32.3799C94.5661 31.8968 94.7256 31.1357 94.7393 30.0967V28.0254ZM103.865 29.7549C103.865 31.236 103.612 32.3366 103.106 33.0566C102.601 33.7767 101.81 34.1367 100.734 34.1367C99.6725 34.1367 98.8864 33.7858 98.376 33.084C97.8656 32.3776 97.6012 31.3249 97.583 29.9258V28.2373C97.583 26.7744 97.8359 25.6875 98.3418 24.9766C98.8477 24.2656 99.6406 23.9102 100.721 23.9102C101.792 23.9102 102.58 24.2542 103.086 24.9424C103.592 25.626 103.852 26.6833 103.865 28.1143V29.7549ZM102.601 28.0254C102.601 26.9544 102.45 26.1751 102.149 25.6875C101.849 25.1953 101.372 24.9492 100.721 24.9492C100.074 24.9492 99.6019 25.193 99.3057 25.6807C99.0094 26.1683 98.8568 26.918 98.8477 27.9297V29.9531C98.8477 31.0286 99.0026 31.8239 99.3125 32.3389C99.627 32.8493 100.101 33.1045 100.734 33.1045C101.359 33.1045 101.821 32.863 102.122 32.3799C102.427 31.8968 102.587 31.1357 102.601 30.0967V28.0254ZM113.654 34C113.581 33.8542 113.522 33.5944 113.477 33.2207C112.889 33.8314 112.187 34.1367 111.371 34.1367C110.642 34.1367 110.043 33.9316 109.573 33.5215C109.108 33.1068 108.876 32.5827 108.876 31.9492C108.876 31.179 109.168 30.582 109.751 30.1582C110.339 29.7298 111.164 29.5156 112.226 29.5156H113.456V28.9346C113.456 28.4925 113.324 28.1416 113.06 27.8818C112.795 27.6175 112.406 27.4854 111.891 27.4854C111.439 27.4854 111.061 27.5993 110.756 27.8271C110.451 28.055 110.298 28.3307 110.298 28.6543H109.026C109.026 28.2852 109.156 27.9297 109.416 27.5879C109.68 27.2415 110.036 26.9681 110.482 26.7676C110.934 26.5671 111.428 26.4668 111.966 26.4668C112.818 26.4668 113.486 26.681 113.969 27.1094C114.452 27.5332 114.702 28.1188 114.721 28.8662V32.2705C114.721 32.9495 114.807 33.4896 114.98 33.8906V34H113.654ZM111.556 33.0361C111.952 33.0361 112.328 32.9336 112.684 32.7285C113.039 32.5234 113.297 32.2568 113.456 31.9287V30.4111H112.465C110.915 30.4111 110.141 30.8646 110.141 31.7715C110.141 32.168 110.273 32.4779 110.537 32.7012C110.801 32.9245 111.141 33.0361 111.556 33.0361ZM117.893 26.6035L117.927 27.4238C118.469 26.7858 119.201 26.4668 120.121 26.4668C121.156 26.4668 121.86 26.8633 122.233 27.6562C122.479 27.3008 122.799 27.0137 123.19 26.7949C123.587 26.5762 124.054 26.4668 124.592 26.4668C126.214 26.4668 127.039 27.3258 127.066 29.0439V34H125.802V29.1191C125.802 28.5905 125.681 28.1963 125.439 27.9365C125.198 27.6722 124.792 27.54 124.223 27.54C123.753 27.54 123.364 27.6813 123.054 27.9639C122.744 28.2419 122.564 28.6178 122.514 29.0918V34H121.242V29.1533C121.242 28.0778 120.716 27.54 119.663 27.54C118.834 27.54 118.266 27.8932 117.961 28.5996V34H116.696V26.6035H117.893ZM135.085 30.2881H131.749V29.2559H135.085V30.2881ZM140.246 29.0098L140.752 24.0469H145.852V25.2158H141.825L141.524 27.9297C142.012 27.6426 142.566 27.499 143.186 27.499C144.092 27.499 144.812 27.7998 145.346 28.4014C145.879 28.9984 146.146 29.8073 146.146 30.8281C146.146 31.8535 145.868 32.6624 145.312 33.2549C144.76 33.8428 143.988 34.1367 142.994 34.1367C142.115 34.1367 141.397 33.8929 140.841 33.4053C140.285 32.9176 139.968 32.2432 139.891 31.3818H141.087C141.164 31.9515 141.367 32.3822 141.695 32.6738C142.023 32.9609 142.456 33.1045 142.994 33.1045C143.582 33.1045 144.042 32.904 144.375 32.5029C144.712 32.1019 144.881 31.5482 144.881 30.8418C144.881 30.1764 144.699 29.6432 144.334 29.2422C143.974 28.8366 143.493 28.6338 142.892 28.6338C142.34 28.6338 141.907 28.7546 141.593 28.9961L141.258 29.2695L140.246 29.0098ZM147.615 33.3369C147.615 33.1182 147.679 32.9359 147.807 32.79C147.939 32.6442 148.135 32.5713 148.395 32.5713C148.654 32.5713 148.85 32.6442 148.982 32.79C149.119 32.9359 149.188 33.1182 149.188 33.3369C149.188 33.5465 149.119 33.722 148.982 33.8633C148.85 34.0046 148.654 34.0752 148.395 34.0752C148.135 34.0752 147.939 34.0046 147.807 33.8633C147.679 33.722 147.615 33.5465 147.615 33.3369ZM147.622 27.3008C147.622 27.082 147.686 26.8997 147.813 26.7539C147.946 26.6081 148.142 26.5352 148.401 26.5352C148.661 26.5352 148.857 26.6081 148.989 26.7539C149.126 26.8997 149.194 27.082 149.194 27.3008C149.194 27.5104 149.126 27.6859 148.989 27.8271C148.857 27.9684 148.661 28.0391 148.401 28.0391C148.142 28.0391 147.946 27.9684 147.813 27.8271C147.686 27.6859 147.622 27.5104 147.622 27.3008ZM157.158 29.7549C157.158 31.236 156.905 32.3366 156.399 33.0566C155.894 33.7767 155.103 34.1367 154.027 34.1367C152.965 34.1367 152.179 33.7858 151.669 33.084C151.159 32.3776 150.894 31.3249 150.876 29.9258V28.2373C150.876 26.7744 151.129 25.6875 151.635 24.9766C152.141 24.2656 152.934 23.9102 154.014 23.9102C155.085 23.9102 155.873 24.2542 156.379 24.9424C156.885 25.626 157.145 26.6833 157.158 28.1143V29.7549ZM155.894 28.0254C155.894 26.9544 155.743 26.1751 155.442 25.6875C155.142 25.1953 154.665 24.9492 154.014 24.9492C153.367 24.9492 152.895 25.193 152.599 25.6807C152.302 26.1683 152.15 26.918 152.141 27.9297V29.9531C152.141 31.0286 152.296 31.8239 152.605 32.3389C152.92 32.8493 153.394 33.1045 154.027 33.1045C154.652 33.1045 155.114 32.863 155.415 32.3799C155.72 31.8968 155.88 31.1357 155.894 30.0967V28.0254ZM165.02 29.7549C165.02 31.236 164.767 32.3366 164.261 33.0566C163.755 33.7767 162.964 34.1367 161.889 34.1367C160.827 34.1367 160.041 33.7858 159.53 33.084C159.02 32.3776 158.756 31.3249 158.737 29.9258V28.2373C158.737 26.7744 158.99 25.6875 159.496 24.9766C160.002 24.2656 160.795 23.9102 161.875 23.9102C162.946 23.9102 163.734 24.2542 164.24 24.9424C164.746 25.626 165.006 26.6833 165.02 28.1143V29.7549ZM163.755 28.0254C163.755 26.9544 163.604 26.1751 163.304 25.6875C163.003 25.1953 162.527 24.9492 161.875 24.9492C161.228 24.9492 160.756 25.193 160.46 25.6807C160.164 26.1683 160.011 26.918 160.002 27.9297V29.9531C160.002 31.0286 160.157 31.8239 160.467 32.3389C160.781 32.8493 161.255 33.1045 161.889 33.1045C162.513 33.1045 162.976 32.863 163.276 32.3799C163.582 31.8968 163.741 31.1357 163.755 30.0967V28.0254ZM176.49 30.3838C176.49 31.5094 176.233 32.4163 175.718 33.1045C175.203 33.7926 174.506 34.1367 173.626 34.1367C172.728 34.1367 172.022 33.8519 171.507 33.2822V36.8438H170.242V26.6035H171.397L171.459 27.4238C171.974 26.7858 172.689 26.4668 173.605 26.4668C174.494 26.4668 175.196 26.8018 175.711 27.4717C176.23 28.1416 176.49 29.0736 176.49 30.2676V30.3838ZM175.226 30.2402C175.226 29.4062 175.048 28.7477 174.692 28.2646C174.337 27.7816 173.849 27.54 173.229 27.54C172.464 27.54 171.89 27.8796 171.507 28.5586V32.0928C171.885 32.7673 172.464 33.1045 173.243 33.1045C173.849 33.1045 174.33 32.8652 174.686 32.3867C175.046 31.9036 175.226 31.1882 175.226 30.2402ZM179.293 26.6035L179.327 27.4238C179.869 26.7858 180.601 26.4668 181.521 26.4668C182.556 26.4668 183.26 26.8633 183.634 27.6562C183.88 27.3008 184.199 27.0137 184.591 26.7949C184.987 26.5762 185.454 26.4668 185.992 26.4668C187.615 26.4668 188.439 27.3258 188.467 29.0439V34H187.202V29.1191C187.202 28.5905 187.081 28.1963 186.84 27.9365C186.598 27.6722 186.193 27.54 185.623 27.54C185.154 27.54 184.764 27.6813 184.454 27.9639C184.144 28.2419 183.964 28.6178 183.914 29.0918V34H182.643V29.1533C182.643 28.0778 182.116 27.54 181.063 27.54C180.234 27.54 179.667 27.8932 179.361 28.5996V34H178.097V26.6035H179.293Z" fill="#FEFEFE"/>
</svg>
