<svg width="143" height="38" viewBox="0 0 143 38" fill="none" xmlns="http://www.w3.org/2000/svg">
<path d="M8.03223 4.12695H4.83301V13H3.52734V4.12695H0.334961V3.04688H8.03223V4.12695ZM9.2627 8.95996C9.2627 7.93001 9.39941 6.94108 9.67285 5.99316C9.95085 5.04525 10.3633 4.18392 10.9102 3.40918C11.457 2.63444 12.0244 2.08757 12.6123 1.76855L12.8721 2.60254C12.2067 3.11296 11.6598 3.89225 11.2314 4.94043C10.8076 5.98861 10.5752 7.16211 10.5342 8.46094L10.5273 9.04199C10.5273 10.8011 10.8486 12.3278 11.4912 13.6221C11.8786 14.3968 12.3389 15.0029 12.8721 15.4404L12.6123 16.2129C12.0062 15.8757 11.4274 15.3105 10.876 14.5176C9.80046 12.9681 9.2627 11.1156 9.2627 8.95996ZM20.3916 3.75781L16.2695 13H14.9434L19.0518 4.08594H13.665V3.04688H20.3916V3.75781ZM28.0684 8.75488C28.0684 10.236 27.8154 11.3366 27.3096 12.0566C26.8037 12.7767 26.013 13.1367 24.9375 13.1367C23.8757 13.1367 23.0895 12.7858 22.5791 12.084C22.0687 11.3776 21.8044 10.3249 21.7861 8.92578V7.2373C21.7861 5.77441 22.0391 4.6875 22.5449 3.97656C23.0508 3.26562 23.8438 2.91016 24.9238 2.91016C25.9948 2.91016 26.7832 3.25423 27.2891 3.94238C27.7949 4.62598 28.0547 5.68327 28.0684 7.11426V8.75488ZM26.8037 7.02539C26.8037 5.95443 26.6533 5.17513 26.3525 4.6875C26.0518 4.19531 25.5755 3.94922 24.9238 3.94922C24.2767 3.94922 23.805 4.19303 23.5088 4.68066C23.2126 5.16829 23.0599 5.91797 23.0508 6.92969V8.95312C23.0508 10.0286 23.2057 10.8239 23.5156 11.3389C23.8301 11.8493 24.304 12.1045 24.9375 12.1045C25.5618 12.1045 26.0244 11.863 26.3252 11.3799C26.6305 10.8968 26.79 10.1357 26.8037 9.09668V7.02539ZM36.21 13H29.6885V12.0908L33.1338 8.2627C33.6442 7.68392 33.9951 7.21452 34.1865 6.85449C34.3825 6.48991 34.4805 6.11393 34.4805 5.72656C34.4805 5.20703 34.3232 4.78092 34.0088 4.44824C33.6943 4.11556 33.2751 3.94922 32.751 3.94922C32.1221 3.94922 31.6322 4.12923 31.2812 4.48926C30.9349 4.84473 30.7617 5.34147 30.7617 5.97949H29.4971C29.4971 5.06348 29.791 4.32292 30.3789 3.75781C30.9714 3.19271 31.762 2.91016 32.751 2.91016C33.6761 2.91016 34.4076 3.15397 34.9453 3.6416C35.4831 4.12467 35.752 4.76953 35.752 5.57617C35.752 6.55599 35.1276 7.72266 33.8789 9.07617L31.2129 11.9678H36.21V13ZM40.5986 9.02832C40.5986 10.0446 40.4642 11.0199 40.1953 11.9541C39.931 12.8838 39.5231 13.7428 38.9717 14.5312C38.4248 15.3197 37.8506 15.8802 37.249 16.2129L36.9824 15.4404C37.6842 14.9027 38.2471 14.0687 38.6709 12.9385C39.0993 11.8037 39.318 10.5459 39.3271 9.16504V8.94629C39.3271 7.98926 39.2269 7.10059 39.0264 6.28027C38.8258 5.4554 38.5456 4.71712 38.1855 4.06543C37.8301 3.41374 37.429 2.9056 36.9824 2.54102L37.249 1.76855C37.8506 2.10124 38.4225 2.65723 38.9648 3.43652C39.5117 4.21582 39.9196 5.07487 40.1885 6.01367C40.4619 6.95247 40.5986 7.95736 40.5986 9.02832ZM50.0459 13H48.7744V4.57129L46.2246 5.50781V4.35938L49.8477 2.99902H50.0459V13ZM58.7139 3.04004V4.11328H58.4814C57.4971 4.13151 56.7132 4.42318 56.1299 4.98828C55.5465 5.55339 55.2093 6.34863 55.1182 7.37402C55.6423 6.77246 56.3577 6.47168 57.2646 6.47168C58.1305 6.47168 58.821 6.77702 59.3359 7.3877C59.8555 7.99837 60.1152 8.78678 60.1152 9.75293C60.1152 10.7783 59.835 11.5986 59.2744 12.2139C58.7184 12.8291 57.971 13.1367 57.0322 13.1367C56.0798 13.1367 55.3073 12.7721 54.7148 12.043C54.1224 11.3092 53.8262 10.3659 53.8262 9.21289V8.72754C53.8262 6.89551 54.2158 5.49642 54.9951 4.53027C55.779 3.55957 56.9434 3.06283 58.4883 3.04004H58.7139ZM57.0527 7.52441C56.6198 7.52441 56.221 7.6543 55.8564 7.91406C55.4919 8.17383 55.2389 8.49967 55.0977 8.8916V9.35645C55.0977 10.1768 55.2822 10.8376 55.6514 11.3389C56.0205 11.8402 56.4808 12.0908 57.0322 12.0908C57.6019 12.0908 58.0485 11.8812 58.3721 11.4619C58.7002 11.0426 58.8643 10.4935 58.8643 9.81445C58.8643 9.13086 58.6979 8.57943 58.3652 8.16016C58.0371 7.73633 57.5996 7.52441 57.0527 7.52441ZM63.4512 7.4082H64.4014C64.9984 7.39909 65.4678 7.24186 65.8096 6.93652C66.1514 6.63118 66.3223 6.21875 66.3223 5.69922C66.3223 4.53255 65.7412 3.94922 64.5791 3.94922C64.0322 3.94922 63.5947 4.10645 63.2666 4.4209C62.943 4.73079 62.7812 5.14323 62.7812 5.6582H61.5166C61.5166 4.86979 61.8037 4.21582 62.3779 3.69629C62.9567 3.1722 63.6904 2.91016 64.5791 2.91016C65.5179 2.91016 66.2539 3.15853 66.7871 3.65527C67.3203 4.15202 67.5869 4.84245 67.5869 5.72656C67.5869 6.15951 67.4456 6.57878 67.1631 6.98438C66.8851 7.38997 66.5046 7.69303 66.0215 7.89355C66.5684 8.06673 66.9899 8.35384 67.2861 8.75488C67.5869 9.15592 67.7373 9.64583 67.7373 10.2246C67.7373 11.1178 67.4456 11.8265 66.8623 12.3506C66.279 12.8747 65.5202 13.1367 64.5859 13.1367C63.6517 13.1367 62.8906 12.8838 62.3027 12.3779C61.7194 11.8721 61.4277 11.2044 61.4277 10.375H62.6992C62.6992 10.8991 62.8701 11.3184 63.2119 11.6328C63.5537 11.9473 64.0117 12.1045 64.5859 12.1045C65.1966 12.1045 65.6637 11.945 65.9873 11.626C66.3109 11.307 66.4727 10.849 66.4727 10.252C66.4727 9.67318 66.2949 9.22884 65.9395 8.91895C65.584 8.60905 65.0713 8.44954 64.4014 8.44043H63.4512V7.4082ZM72.2354 9.28809H68.8994V8.25586H72.2354V9.28809ZM75.1816 7.4082H76.1318C76.7288 7.39909 77.1982 7.24186 77.54 6.93652C77.8818 6.63118 78.0527 6.21875 78.0527 5.69922C78.0527 4.53255 77.4717 3.94922 76.3096 3.94922C75.7627 3.94922 75.3252 4.10645 74.9971 4.4209C74.6735 4.73079 74.5117 5.14323 74.5117 5.6582H73.2471C73.2471 4.86979 73.5342 4.21582 74.1084 3.69629C74.6872 3.1722 75.4209 2.91016 76.3096 2.91016C77.2484 2.91016 77.9844 3.15853 78.5176 3.65527C79.0508 4.15202 79.3174 4.84245 79.3174 5.72656C79.3174 6.15951 79.1761 6.57878 78.8936 6.98438C78.6156 7.38997 78.235 7.69303 77.752 7.89355C78.2988 8.06673 78.7204 8.35384 79.0166 8.75488C79.3174 9.15592 79.4678 9.64583 79.4678 10.2246C79.4678 11.1178 79.1761 11.8265 78.5928 12.3506C78.0094 12.8747 77.2507 13.1367 76.3164 13.1367C75.3822 13.1367 74.6211 12.8838 74.0332 12.3779C73.4499 11.8721 73.1582 11.2044 73.1582 10.375H74.4297C74.4297 10.8991 74.6006 11.3184 74.9424 11.6328C75.2842 11.9473 75.7422 12.1045 76.3164 12.1045C76.9271 12.1045 77.3942 11.945 77.7178 11.626C78.0413 11.307 78.2031 10.849 78.2031 10.252C78.2031 9.67318 78.0254 9.22884 77.6699 8.91895C77.3145 8.60905 76.8018 8.44954 76.1318 8.44043H75.1816V7.4082ZM86.543 9.65723H87.9238V10.6895H86.543V13H85.2715V10.6895H80.7393V9.94434L85.1963 3.04688H86.543V9.65723ZM82.1748 9.65723H85.2715V4.77637L85.1211 5.0498L82.1748 9.65723ZM90.9043 7.4082H91.8545C92.4515 7.39909 92.9209 7.24186 93.2627 6.93652C93.6045 6.63118 93.7754 6.21875 93.7754 5.69922C93.7754 4.53255 93.1943 3.94922 92.0322 3.94922C91.4854 3.94922 91.0479 4.10645 90.7197 4.4209C90.3962 4.73079 90.2344 5.14323 90.2344 5.6582H88.9697C88.9697 4.86979 89.2568 4.21582 89.8311 3.69629C90.4098 3.1722 91.1436 2.91016 92.0322 2.91016C92.971 2.91016 93.707 3.15853 94.2402 3.65527C94.7734 4.15202 95.04 4.84245 95.04 5.72656C95.04 6.15951 94.8988 6.57878 94.6162 6.98438C94.3382 7.38997 93.9577 7.69303 93.4746 7.89355C94.0215 8.06673 94.443 8.35384 94.7393 8.75488C95.04 9.15592 95.1904 9.64583 95.1904 10.2246C95.1904 11.1178 94.8988 11.8265 94.3154 12.3506C93.7321 12.8747 92.9733 13.1367 92.0391 13.1367C91.1048 13.1367 90.3438 12.8838 89.7559 12.3779C89.1725 11.8721 88.8809 11.2044 88.8809 10.375H90.1523C90.1523 10.8991 90.3232 11.3184 90.665 11.6328C91.0068 11.9473 91.4648 12.1045 92.0391 12.1045C92.6497 12.1045 93.1169 11.945 93.4404 11.626C93.764 11.307 93.9258 10.849 93.9258 10.252C93.9258 9.67318 93.748 9.22884 93.3926 8.91895C93.0371 8.60905 92.5244 8.44954 91.8545 8.44043H90.9043V7.4082ZM98.7656 7.4082H99.7158C100.313 7.39909 100.782 7.24186 101.124 6.93652C101.466 6.63118 101.637 6.21875 101.637 5.69922C101.637 4.53255 101.056 3.94922 99.8936 3.94922C99.3467 3.94922 98.9092 4.10645 98.5811 4.4209C98.2575 4.73079 98.0957 5.14323 98.0957 5.6582H96.8311C96.8311 4.86979 97.1182 4.21582 97.6924 3.69629C98.2712 3.1722 99.0049 2.91016 99.8936 2.91016C100.832 2.91016 101.568 3.15853 102.102 3.65527C102.635 4.15202 102.901 4.84245 102.901 5.72656C102.901 6.15951 102.76 6.57878 102.478 6.98438C102.2 7.38997 101.819 7.69303 101.336 7.89355C101.883 8.06673 102.304 8.35384 102.601 8.75488C102.901 9.15592 103.052 9.64583 103.052 10.2246C103.052 11.1178 102.76 11.8265 102.177 12.3506C101.593 12.8747 100.835 13.1367 99.9004 13.1367C98.9661 13.1367 98.2051 12.8838 97.6172 12.3779C97.0339 11.8721 96.7422 11.2044 96.7422 10.375H98.0137C98.0137 10.8991 98.1846 11.3184 98.5264 11.6328C98.8682 11.9473 99.3262 12.1045 99.9004 12.1045C100.511 12.1045 100.978 11.945 101.302 11.626C101.625 11.307 101.787 10.849 101.787 10.252C101.787 9.67318 101.609 9.22884 101.254 8.91895C100.898 8.60905 100.386 8.44954 99.7158 8.44043H98.7656V7.4082Z" fill="#FEFEFE"/>
<path d="M2.14648 32.9678H6.47363V34H0.601562V33.0703L4.68262 27.6494H0.663086V26.6035H6.26855V27.499L2.14648 32.9678ZM7.45801 30.2334C7.45801 29.5088 7.59928 28.8571 7.88184 28.2783C8.16895 27.6995 8.56543 27.2529 9.07129 26.9385C9.58171 26.624 10.1628 26.4668 10.8145 26.4668C11.8216 26.4668 12.6351 26.8154 13.2549 27.5127C13.8792 28.21 14.1914 29.1374 14.1914 30.2949V30.3838C14.1914 31.1038 14.0524 31.751 13.7744 32.3252C13.501 32.8949 13.1068 33.3392 12.5918 33.6582C12.0814 33.9772 11.4935 34.1367 10.8281 34.1367C9.82552 34.1367 9.01204 33.7881 8.3877 33.0908C7.7679 32.3936 7.45801 31.4707 7.45801 30.3223V30.2334ZM8.72949 30.3838C8.72949 31.2041 8.91862 31.8626 9.29688 32.3594C9.67969 32.8561 10.1901 33.1045 10.8281 33.1045C11.4707 33.1045 11.9811 32.8538 12.3594 32.3525C12.7376 31.8467 12.9268 31.1403 12.9268 30.2334C12.9268 29.4222 12.7331 28.766 12.3457 28.2646C11.9629 27.7588 11.4525 27.5059 10.8145 27.5059C10.1901 27.5059 9.68652 27.7542 9.30371 28.251C8.9209 28.7477 8.72949 29.4587 8.72949 30.3838ZM15.4424 30.2334C15.4424 29.5088 15.5837 28.8571 15.8662 28.2783C16.1533 27.6995 16.5498 27.2529 17.0557 26.9385C17.5661 26.624 18.1471 26.4668 18.7988 26.4668C19.806 26.4668 20.6195 26.8154 21.2393 27.5127C21.8636 28.21 22.1758 29.1374 22.1758 30.2949V30.3838C22.1758 31.1038 22.0368 31.751 21.7588 32.3252C21.4854 32.8949 21.0911 33.3392 20.5762 33.6582C20.0658 33.9772 19.4779 34.1367 18.8125 34.1367C17.8099 34.1367 16.9964 33.7881 16.3721 33.0908C15.7523 32.3936 15.4424 31.4707 15.4424 30.3223V30.2334ZM16.7139 30.3838C16.7139 31.2041 16.903 31.8626 17.2812 32.3594C17.6641 32.8561 18.1745 33.1045 18.8125 33.1045C19.4551 33.1045 19.9655 32.8538 20.3438 32.3525C20.722 31.8467 20.9111 31.1403 20.9111 30.2334C20.9111 29.4222 20.7174 28.766 20.3301 28.2646C19.9473 27.7588 19.4368 27.5059 18.7988 27.5059C18.1745 27.5059 17.6709 27.7542 17.2881 28.251C16.9053 28.7477 16.7139 29.4587 16.7139 30.3838ZM23.7891 33.3369C23.7891 33.1182 23.8529 32.9359 23.9805 32.79C24.1126 32.6442 24.3086 32.5713 24.5684 32.5713C24.8281 32.5713 25.0241 32.6442 25.1562 32.79C25.293 32.9359 25.3613 33.1182 25.3613 33.3369C25.3613 33.5465 25.293 33.722 25.1562 33.8633C25.0241 34.0046 24.8281 34.0752 24.5684 34.0752C24.3086 34.0752 24.1126 34.0046 23.9805 33.8633C23.8529 33.722 23.7891 33.5465 23.7891 33.3369ZM27.1182 30.2334C27.1182 29.5088 27.2594 28.8571 27.542 28.2783C27.8291 27.6995 28.2256 27.2529 28.7314 26.9385C29.2419 26.624 29.8229 26.4668 30.4746 26.4668C31.4818 26.4668 32.2952 26.8154 32.915 27.5127C33.5394 28.21 33.8516 29.1374 33.8516 30.2949V30.3838C33.8516 31.1038 33.7126 31.751 33.4346 32.3252C33.1611 32.8949 32.7669 33.3392 32.252 33.6582C31.7415 33.9772 31.1536 34.1367 30.4883 34.1367C29.4857 34.1367 28.6722 33.7881 28.0479 33.0908C27.4281 32.3936 27.1182 31.4707 27.1182 30.3223V30.2334ZM28.3896 30.3838C28.3896 31.2041 28.5788 31.8626 28.957 32.3594C29.3398 32.8561 29.8503 33.1045 30.4883 33.1045C31.1309 33.1045 31.6413 32.8538 32.0195 32.3525C32.3978 31.8467 32.5869 31.1403 32.5869 30.2334C32.5869 29.4222 32.3932 28.766 32.0059 28.2646C31.623 27.7588 31.1126 27.5059 30.4746 27.5059C29.8503 27.5059 29.3467 27.7542 28.9639 28.251C28.5811 28.7477 28.3896 29.4587 28.3896 30.3838ZM36.6338 26.6035L36.6748 27.5332C37.2399 26.8223 37.9782 26.4668 38.8896 26.4668C40.4528 26.4668 41.2412 27.3486 41.2549 29.1123V34H39.9902V29.1055C39.9857 28.5723 39.8626 28.1781 39.6211 27.9229C39.3841 27.6676 39.0127 27.54 38.5068 27.54C38.0967 27.54 37.7367 27.6494 37.4268 27.8682C37.1169 28.0869 36.8753 28.374 36.7021 28.7295V34H35.4375V26.6035H36.6338ZM44.5361 34H43.2715V23.5H44.5361V34ZM47.9404 34H46.6758V26.6035H47.9404V34ZM46.5732 24.6416C46.5732 24.4365 46.6348 24.2633 46.7578 24.1221C46.8854 23.9808 47.0723 23.9102 47.3184 23.9102C47.5645 23.9102 47.7513 23.9808 47.8789 24.1221C48.0065 24.2633 48.0703 24.4365 48.0703 24.6416C48.0703 24.8467 48.0065 25.0176 47.8789 25.1543C47.7513 25.291 47.5645 25.3594 47.3184 25.3594C47.0723 25.3594 46.8854 25.291 46.7578 25.1543C46.6348 25.0176 46.5732 24.8467 46.5732 24.6416ZM51.167 26.6035L51.208 27.5332C51.7731 26.8223 52.5114 26.4668 53.4229 26.4668C54.986 26.4668 55.7744 27.3486 55.7881 29.1123V34H54.5234V29.1055C54.5189 28.5723 54.3958 28.1781 54.1543 27.9229C53.9173 27.6676 53.5459 27.54 53.04 27.54C52.6299 27.54 52.2699 27.6494 51.96 27.8682C51.6501 28.0869 51.4085 28.374 51.2354 28.7295V34H49.9707V26.6035H51.167ZM60.7646 34.1367C59.762 34.1367 58.9463 33.8086 58.3174 33.1523C57.6885 32.4915 57.374 31.6097 57.374 30.5068V30.2744C57.374 29.5407 57.513 28.8867 57.791 28.3125C58.0736 27.7337 58.4655 27.2826 58.9668 26.959C59.4727 26.6309 60.0195 26.4668 60.6074 26.4668C61.569 26.4668 62.3164 26.7835 62.8496 27.417C63.3828 28.0505 63.6494 28.9574 63.6494 30.1377V30.6641H58.6387C58.6569 31.3932 58.8688 31.9834 59.2744 32.4346C59.6846 32.8812 60.2041 33.1045 60.833 33.1045C61.2796 33.1045 61.6579 33.0133 61.9678 32.8311C62.2777 32.6488 62.5488 32.4072 62.7812 32.1064L63.5537 32.708C62.9339 33.6605 62.0042 34.1367 60.7646 34.1367ZM60.6074 27.5059C60.097 27.5059 59.6686 27.6927 59.3223 28.0664C58.9759 28.4355 58.7617 28.9551 58.6797 29.625H62.3848V29.5293C62.3483 28.8867 62.1751 28.39 61.8652 28.0391C61.5553 27.6836 61.1361 27.5059 60.6074 27.5059ZM76.043 30.5684C75.9883 31.6712 75.7148 32.5417 75.2227 33.1797C74.7305 33.8177 74.0719 34.1367 73.2471 34.1367C72.3949 34.1367 71.848 33.7539 71.6064 32.9883C71.3604 33.3757 71.0778 33.665 70.7588 33.8564C70.4443 34.0433 70.1185 34.1367 69.7812 34.1367C69.1341 34.1367 68.6442 33.8724 68.3115 33.3438C67.9788 32.8151 67.8558 32.0837 67.9424 31.1494C68.0107 30.3975 68.1816 29.7275 68.4551 29.1396C68.7331 28.5472 69.0885 28.0824 69.5215 27.7451C69.959 27.4079 70.417 27.2393 70.8955 27.2393C71.2646 27.2393 71.5951 27.2894 71.8867 27.3896C72.1784 27.4854 72.5065 27.6768 72.8711 27.9639L72.5156 31.751C72.429 32.8037 72.7207 33.3301 73.3906 33.3301C73.9056 33.3301 74.3226 33.0749 74.6416 32.5645C74.9606 32.054 75.1338 31.3887 75.1611 30.5684C75.2477 28.7956 74.9173 27.4443 74.1699 26.5146C73.4271 25.585 72.2946 25.1201 70.7725 25.1201C69.8564 25.1201 69.043 25.348 68.332 25.8037C67.6211 26.2549 67.0605 26.9089 66.6504 27.7656C66.2402 28.6224 66.0101 29.6113 65.96 30.7324C65.9053 31.8626 66.042 32.8447 66.3701 33.6787C66.6982 34.5081 67.1973 35.1416 67.8672 35.5791C68.5417 36.0212 69.3551 36.2422 70.3076 36.2422C70.7178 36.2422 71.1279 36.1921 71.5381 36.0918C71.9528 35.9915 72.2969 35.8617 72.5703 35.7021L72.8232 36.4883C72.5407 36.666 72.1647 36.8118 71.6953 36.9258C71.2305 37.0397 70.7588 37.0967 70.2803 37.0967C69.141 37.0967 68.1611 36.8392 67.3408 36.3242C66.5205 35.8138 65.9053 35.0755 65.4951 34.1094C65.0895 33.1478 64.9141 32.0221 64.9688 30.7324C65.0234 29.4792 65.3037 28.3535 65.8096 27.3555C66.3154 26.3529 67.0013 25.5804 67.8672 25.0381C68.7331 24.4912 69.7106 24.2178 70.7998 24.2178C71.9346 24.2178 72.9076 24.473 73.7188 24.9834C74.5299 25.4938 75.1338 26.2298 75.5303 27.1914C75.9268 28.153 76.0977 29.2786 76.043 30.5684ZM69.0293 31.1494C68.9655 31.7965 69.0247 32.2933 69.207 32.6396C69.3939 32.986 69.6878 33.1592 70.0889 33.1592C70.3623 33.1592 70.6243 33.043 70.875 32.8105C71.1302 32.5781 71.3398 32.2454 71.5039 31.8125L71.5107 31.751L71.8252 28.3125C71.57 28.1803 71.2965 28.1143 71.0049 28.1143C70.4717 28.1143 70.0296 28.3854 69.6787 28.9277C69.3324 29.4701 69.1159 30.2106 69.0293 31.1494ZM77.3965 30.2402C77.3965 29.0872 77.6631 28.1712 78.1963 27.4922C78.7295 26.8086 79.4359 26.4668 80.3154 26.4668C81.2178 26.4668 81.9219 26.7858 82.4277 27.4238L82.4893 26.6035H83.6445V33.8223C83.6445 34.7793 83.3597 35.5335 82.79 36.085C82.2249 36.6364 81.4639 36.9121 80.5068 36.9121C79.9736 36.9121 79.4518 36.7982 78.9414 36.5703C78.431 36.3424 78.0413 36.0303 77.7725 35.6338L78.4287 34.875C78.971 35.5449 79.6341 35.8799 80.418 35.8799C81.0332 35.8799 81.5117 35.7067 81.8535 35.3604C82.1999 35.014 82.373 34.5264 82.373 33.8975V33.2617C81.8672 33.8451 81.1768 34.1367 80.3018 34.1367C79.4359 34.1367 78.734 33.7881 78.1963 33.0908C77.6631 32.3936 77.3965 31.4434 77.3965 30.2402ZM78.668 30.3838C78.668 31.2178 78.8389 31.874 79.1807 32.3525C79.5225 32.8265 80.001 33.0635 80.6162 33.0635C81.4137 33.0635 81.9993 32.7012 82.373 31.9766V28.5996C81.9857 27.8932 81.4046 27.54 80.6299 27.54C80.0146 27.54 79.5339 27.7793 79.1875 28.2578C78.8411 28.7363 78.668 29.445 78.668 30.3838ZM86.748 26.6035L86.7822 27.4238C87.3245 26.7858 88.056 26.4668 88.9766 26.4668C90.0111 26.4668 90.7152 26.8633 91.0889 27.6562C91.335 27.3008 91.654 27.0137 92.0459 26.7949C92.4424 26.5762 92.9095 26.4668 93.4473 26.4668C95.0697 26.4668 95.8945 27.3258 95.9219 29.0439V34H94.6572V29.1191C94.6572 28.5905 94.5365 28.1963 94.2949 27.9365C94.0534 27.6722 93.6478 27.54 93.0781 27.54C92.6087 27.54 92.2191 27.6813 91.9092 27.9639C91.5993 28.2419 91.4193 28.6178 91.3691 29.0918V34H90.0977V29.1533C90.0977 28.0778 89.5713 27.54 88.5186 27.54C87.6891 27.54 87.1217 27.8932 86.8164 28.5996V34H85.5518V26.6035H86.748ZM102.402 34C102.329 33.8542 102.27 33.5944 102.225 33.2207C101.637 33.8314 100.935 34.1367 100.119 34.1367C99.39 34.1367 98.7907 33.9316 98.3213 33.5215C97.8564 33.1068 97.624 32.5827 97.624 31.9492C97.624 31.179 97.9157 30.582 98.499 30.1582C99.0869 29.7298 99.9118 29.5156 100.974 29.5156H102.204V28.9346C102.204 28.4925 102.072 28.1416 101.808 27.8818C101.543 27.6175 101.154 27.4854 100.639 27.4854C100.188 27.4854 99.8092 27.5993 99.5039 27.8271C99.1986 28.055 99.0459 28.3307 99.0459 28.6543H97.7744C97.7744 28.2852 97.9043 27.9297 98.1641 27.5879C98.4284 27.2415 98.7839 26.9681 99.2305 26.7676C99.6816 26.5671 100.176 26.4668 100.714 26.4668C101.566 26.4668 102.234 26.681 102.717 27.1094C103.2 27.5332 103.451 28.1188 103.469 28.8662V32.2705C103.469 32.9495 103.555 33.4896 103.729 33.8906V34H102.402ZM100.304 33.0361C100.7 33.0361 101.076 32.9336 101.432 32.7285C101.787 32.5234 102.045 32.2568 102.204 31.9287V30.4111H101.213C99.6634 30.4111 98.8887 30.8646 98.8887 31.7715C98.8887 32.168 99.0208 32.4779 99.2852 32.7012C99.5495 32.9245 99.889 33.0361 100.304 33.0361ZM106.825 34H105.561V26.6035H106.825V34ZM105.458 24.6416C105.458 24.4365 105.52 24.2633 105.643 24.1221C105.77 23.9808 105.957 23.9102 106.203 23.9102C106.449 23.9102 106.636 23.9808 106.764 24.1221C106.891 24.2633 106.955 24.4365 106.955 24.6416C106.955 24.8467 106.891 25.0176 106.764 25.1543C106.636 25.291 106.449 25.3594 106.203 25.3594C105.957 25.3594 105.77 25.291 105.643 25.1543C105.52 25.0176 105.458 24.8467 105.458 24.6416ZM110.229 34H108.965V23.5H110.229V34ZM112.287 33.3369C112.287 33.1182 112.351 32.9359 112.479 32.79C112.611 32.6442 112.807 32.5713 113.066 32.5713C113.326 32.5713 113.522 32.6442 113.654 32.79C113.791 32.9359 113.859 33.1182 113.859 33.3369C113.859 33.5465 113.791 33.722 113.654 33.8633C113.522 34.0046 113.326 34.0752 113.066 34.0752C112.807 34.0752 112.611 34.0046 112.479 33.8633C112.351 33.722 112.287 33.5465 112.287 33.3369ZM118.918 33.1045C119.369 33.1045 119.763 32.9678 120.101 32.6943C120.438 32.4209 120.625 32.0791 120.661 31.6689H121.857C121.835 32.0928 121.689 32.4961 121.42 32.8789C121.151 33.2617 120.791 33.5671 120.34 33.7949C119.893 34.0228 119.419 34.1367 118.918 34.1367C117.911 34.1367 117.109 33.8018 116.512 33.1318C115.919 32.4574 115.623 31.5368 115.623 30.3701V30.1582C115.623 29.4382 115.755 28.7979 116.02 28.2373C116.284 27.6768 116.662 27.2415 117.154 26.9316C117.651 26.6217 118.237 26.4668 118.911 26.4668C119.741 26.4668 120.429 26.7152 120.976 27.2119C121.527 27.7087 121.821 28.3535 121.857 29.1465H120.661C120.625 28.668 120.442 28.276 120.114 27.9707C119.791 27.6608 119.39 27.5059 118.911 27.5059C118.269 27.5059 117.77 27.7383 117.414 28.2031C117.063 28.6634 116.888 29.3311 116.888 30.2061V30.4453C116.888 31.2975 117.063 31.9538 117.414 32.4141C117.765 32.8743 118.266 33.1045 118.918 33.1045ZM122.944 30.2334C122.944 29.5088 123.086 28.8571 123.368 28.2783C123.655 27.6995 124.052 27.2529 124.558 26.9385C125.068 26.624 125.649 26.4668 126.301 26.4668C127.308 26.4668 128.121 26.8154 128.741 27.5127C129.366 28.21 129.678 29.1374 129.678 30.2949V30.3838C129.678 31.1038 129.539 31.751 129.261 32.3252C128.987 32.8949 128.593 33.3392 128.078 33.6582C127.568 33.9772 126.98 34.1367 126.314 34.1367C125.312 34.1367 124.498 33.7881 123.874 33.0908C123.254 32.3936 122.944 31.4707 122.944 30.3223V30.2334ZM124.216 30.3838C124.216 31.2041 124.405 31.8626 124.783 32.3594C125.166 32.8561 125.676 33.1045 126.314 33.1045C126.957 33.1045 127.467 32.8538 127.846 32.3525C128.224 31.8467 128.413 31.1403 128.413 30.2334C128.413 29.4222 128.219 28.766 127.832 28.2646C127.449 27.7588 126.939 27.5059 126.301 27.5059C125.676 27.5059 125.173 27.7542 124.79 28.251C124.407 28.7477 124.216 29.4587 124.216 30.3838ZM132.453 26.6035L132.487 27.4238C133.03 26.7858 133.761 26.4668 134.682 26.4668C135.716 26.4668 136.42 26.8633 136.794 27.6562C137.04 27.3008 137.359 27.0137 137.751 26.7949C138.147 26.5762 138.615 26.4668 139.152 26.4668C140.775 26.4668 141.6 27.3258 141.627 29.0439V34H140.362V29.1191C140.362 28.5905 140.242 28.1963 140 27.9365C139.758 27.6722 139.353 27.54 138.783 27.54C138.314 27.54 137.924 27.6813 137.614 27.9639C137.304 28.2419 137.124 28.6178 137.074 29.0918V34H135.803V29.1533C135.803 28.0778 135.276 27.54 134.224 27.54C133.394 27.54 132.827 27.8932 132.521 28.5996V34H131.257V26.6035H132.453Z" fill="#FEFEFE"/>
</svg>
