<svg width="125" height="20" viewBox="0 0 125 20" fill="none" xmlns="http://www.w3.org/2000/svg">
<path d="M89.8217 14.1784C89.768 14.0883 89.4355 13.3658 87.8353 11.8807C86.1602 10.3256 86.3852 10.5781 88.4029 7.88914C89.6317 6.25152 90.123 5.25145 89.9692 4.82392C89.823 4.41639 88.9192 4.52389 88.9192 4.52389L85.9139 4.5414C85.9139 4.5414 85.6914 4.51139 85.5252 4.61015C85.3639 4.70766 85.2601 4.93267 85.2601 4.93267C85.2601 4.93267 84.7839 6.20027 84.1488 7.27785C82.81 9.55176 82.2737 9.67177 82.0549 9.53051C81.5461 9.20174 81.6736 8.20792 81.6736 7.50286C81.6736 5.29895 82.0074 4.38013 81.0223 4.14262C80.6948 4.06386 80.4548 4.01136 79.6185 4.00261C78.5459 3.99136 77.6371 4.00636 77.1233 4.25762C76.7808 4.42514 76.517 4.79891 76.6783 4.82017C76.877 4.84642 77.3271 4.94143 77.5658 5.26645C77.8746 5.68523 77.8634 6.6278 77.8634 6.6278C77.8634 6.6278 78.0409 9.22174 77.4496 9.54426C77.0433 9.76553 76.487 9.31425 75.2932 7.25034C74.6819 6.19402 74.2193 5.02518 74.2193 5.02518C74.2193 5.02518 74.1306 4.80767 73.9718 4.69141C73.7793 4.55015 73.5093 4.50514 73.5093 4.50514L70.6516 4.52264C70.6516 4.52264 70.2228 4.53515 70.0653 4.72141C69.9253 4.88767 70.054 5.2302 70.054 5.2302C70.054 5.2302 72.2917 10.4643 74.8244 13.1033C77.1483 15.5222 79.786 15.3634 79.786 15.3634H80.9811C80.9811 15.3634 81.3424 15.3234 81.5261 15.1247C81.6961 14.9422 81.6899 14.5996 81.6899 14.5996C81.6899 14.5996 81.6661 12.9958 82.4112 12.7595C83.145 12.527 84.0876 14.3096 85.0864 14.9959C85.8414 15.5147 86.4152 15.4009 86.4152 15.4009L89.0867 15.3634C89.0867 15.3634 90.4843 15.2772 89.8217 14.1784Z" fill="#FEFEFE"/>
<path d="M124.15 4.325C123.608 3.36 123.019 3.1825 121.82 3.115C120.623 3.03375 117.611 3 115.002 3C112.389 3 109.376 3.03375 108.18 3.11375C106.984 3.1825 106.394 3.35875 105.846 4.325C105.287 5.28875 105 6.94875 105 9.87125C105 9.87375 105 9.875 105 9.875C105 9.8775 105 9.87875 105 9.87875V9.88125C105 12.7913 105.287 14.4637 105.846 15.4175C106.394 16.3825 106.982 16.5575 108.179 16.6388C109.376 16.7088 112.389 16.75 115.002 16.75C117.611 16.75 120.622 16.7087 121.821 16.64C123.02 16.5587 123.609 16.3838 124.151 15.4188C124.715 14.465 125 12.7925 125 9.8825C125 9.8825 125 9.87875 125 9.87625C125 9.87625 125 9.87375 125 9.8725C125 6.94875 124.715 5.28875 124.15 4.325ZM112.5 13.625V6.125L118.75 9.875L112.5 13.625Z" fill="#FEFEFE"/>
<path d="M55 3.92375C54.2563 4.25 53.4637 4.46625 52.6375 4.57125C53.4875 4.06375 54.1363 3.26625 54.4412 2.305C53.6488 2.7775 52.7738 3.11125 51.8412 3.2975C51.0887 2.49625 50.0162 2 48.8462 2C46.5763 2 44.7487 3.8425 44.7487 6.10125C44.7487 6.42625 44.7762 6.73875 44.8438 7.03625C41.435 6.87 38.4188 5.23625 36.3925 2.7475C36.0387 3.36125 35.8313 4.06375 35.8313 4.82C35.8313 6.24 36.5625 7.49875 37.6525 8.2275C36.9937 8.215 36.3475 8.02375 35.8 7.7225C35.8 7.735 35.8 7.75125 35.8 7.7675C35.8 9.76 37.2212 11.415 39.085 11.7962C38.7512 11.8875 38.3875 11.9312 38.01 11.9312C37.7475 11.9312 37.4825 11.9163 37.2337 11.8612C37.765 13.485 39.2725 14.6788 41.065 14.7175C39.67 15.8088 37.8988 16.4662 35.9813 16.4662C35.645 16.4662 35.3225 16.4513 35 16.41C36.8162 17.5813 38.9688 18.25 41.29 18.25C48.835 18.25 52.96 12 52.96 6.5825C52.96 6.40125 52.9538 6.22625 52.945 6.0525C53.7588 5.475 54.4425 4.75375 55 3.92375Z" fill="#FEFEFE"/>
<path d="M13.75 0H6.25C2.79875 0 0 2.79875 0 6.25V13.75C0 17.2013 2.79875 20 6.25 20H13.75C17.2013 20 20 17.2013 20 13.75V6.25C20 2.79875 17.2013 0 13.75 0ZM18.125 13.75C18.125 16.1625 16.1625 18.125 13.75 18.125H6.25C3.8375 18.125 1.875 16.1625 1.875 13.75V6.25C1.875 3.8375 3.8375 1.875 6.25 1.875H13.75C16.1625 1.875 18.125 3.8375 18.125 6.25V13.75Z" fill="#FEFEFE"/>
<path d="M10 5C7.23875 5 5 7.23875 5 10C5 12.7613 7.23875 15 10 15C12.7613 15 15 12.7613 15 10C15 7.23875 12.7613 5 10 5ZM10 13.125C8.2775 13.125 6.875 11.7225 6.875 10C6.875 8.27625 8.2775 6.875 10 6.875C11.7225 6.875 13.125 8.27625 13.125 10C13.125 11.7225 11.7225 13.125 10 13.125Z" fill="#FEFEFE"/>
<path d="M15.3752 5.29148C15.7432 5.29148 16.0415 4.99319 16.0415 4.62523C16.0415 4.25727 15.7432 3.95898 15.3752 3.95898C15.0073 3.95898 14.709 4.25727 14.709 4.62523C14.709 4.99319 15.0073 5.29148 15.3752 5.29148Z" fill="#FEFEFE"/>
</svg>
